Coordinates
version=1
nRows=19
nColumns=36
inDegrees=yes

Units are S.I. units (second, meters, Newtons, ...)
If the header above contains a line with 'inDegrees', this indicates whether rotational values are in degrees (yes) or radians (no).

endheader
time	pelvis_tilt	pelvis_list	pelvis_rotation	pelvis_tx	pelvis_ty	pelvis_tz	hip_flexion_r	hip_adduction_r	hip_rotation_r	knee_angle_r	knee_angle_r_beta	ankle_angle_r	subtalar_angle_r	mtp_angle_r	hip_flexion_l	hip_adduction_l	hip_rotation_l	knee_angle_l	knee_angle_l_beta	ankle_angle_l	subtalar_angle_l	mtp_angle_l	lumbar_extension	lumbar_bending	lumbar_rotation	arm_flex_r	arm_add_r	arm_rot_r	elbow_flex_r	pro_sup_r	arm_flex_l	arm_add_l	arm_rot_l	elbow_flex_l	pro_sup_l
      2.48333330	     -8.59516737	      0.12048705	      3.42310770	      0.48013062	      1.07888825	      0.23599711	     29.55961832	    -11.05117488	     -7.73208277	     14.40977143	      0.25149796	    -17.14821667	      7.27269403	     -7.49999976	     30.41234191	    -11.87561533	     -6.74469504	     15.94498101	      0.27829242	    -19.26843826	     -5.59128448	     -7.49999976	    -24.02886992	     -0.79832066	     -0.01493459	    -24.58061871	    -25.11535896	      4.50725790	     93.00365945	     80.41918408	    -23.42328187	    -24.42760505	    -13.68889522	    118.86322466	     93.83317558
      2.50000000	     -7.99459539	      0.20716173	      3.07663222	      0.51262235	      1.04372244	      0.22558435	     29.76077784	    -11.14203251	     -7.60984272	     15.21114127	      0.26548450	    -16.32470834	      6.70769371	     -7.49999977	     30.84999298	    -11.82209649	     -6.27660286	     16.30356016	      0.28455080	    -18.56910697	     -5.22766087	     -7.49999977	    -24.61430207	     -0.75489893	     -0.12909931	    -23.69513318	    -25.03060311	      3.81121960	     93.88899168	     80.10013655	    -24.16894223	    -23.35307340	    -13.43528911	    116.90213794	     92.90368020
      2.51666670	     -8.00197597	      0.04439540	      2.81347061	      0.52061214	      0.99543271	      0.22302159	     32.13227758	    -11.23533810	     -6.91653560	     19.44220632	      0.33933051	    -12.66564322	      4.56603609	     -7.49999978	     33.04069940	    -12.10577061	     -5.23715471	     19.44071638	      0.33930451	    -14.99009612	     -5.46719444	     -7.49999978	    -25.55917859	     -0.09269119	      0.00131556	    -21.12590358	    -25.57697164	      3.87334515	     95.38075111	     79.24861124	    -22.61346596	    -22.40072844	    -12.43278542	    114.72549937	     90.72540643
      2.53333330	     -8.64465126	      0.07013868	      2.44676187	      0.52152063	      0.95310288	      0.22110655	     37.96934575	    -11.64986385	     -5.78901576	     28.62516470	      0.49960337	     -6.77909189	      0.44099170	     -7.49999981	     38.16792545	    -12.60045024	     -4.29610866	     26.98850601	      0.47103829	     -8.32487827	     -6.40819288	     -7.49999981	    -27.45793811	      0.37598764	      0.08563905	    -16.63120489	    -25.95557898	      4.60427959	     96.34369175	     77.31842640	    -18.63611963	    -22.31946274	     -9.92129486	    113.05527115	     86.73103381
      2.55000000	    -10.01561021	      0.46675436	      2.18950224	      0.52184094	      0.92264124	      0.22090660	     45.81058160	    -12.22576202	     -3.68070974	     39.74172074	      0.69362388	     -0.58285372	     -4.27092126	     -7.49999984	     45.40446038	    -12.94106726	     -3.36578478	     36.89209942	      0.64388860	     -1.65754025	     -7.99976211	     -7.49999984	    -29.71968346	      0.28160355	      0.83457969	    -10.79888634	    -25.09326566	      2.84751435	     97.30690815	     83.96859249	    -11.83282227	    -22.45533143	     -7.00009345	    109.60643946	     90.65936116
      2.56666670	    -11.26784406	      0.88302307	      1.91907777	      0.51844232	      0.89270127	      0.22162241	     53.31438526	    -12.62713682	     -1.87881835	     50.21765894	      0.87646349	      4.87304799	     -7.38590231	     -7.49999985	     52.48591956	    -13.47532492	     -2.83742519	     46.41809549	      0.81014860	      3.57268448	     -9.30014922	     -7.49999985	    -32.51598318	      0.08936689	      0.88470203	     -2.61402598	    -24.33110374	      2.79835461	     98.78372396	     85.41077884	     -3.19806546	    -23.43999259	     -3.24426765	    108.34824164	     88.44548971
      2.58333330	    -12.90143740	      0.93944898	      1.78178404	      0.52168595	      0.85651738	      0.22176639	     60.52330246	    -12.83280103	     -0.65283583	     59.41224046	      1.03693921	      9.61011536	     -9.12491498	     -7.49999985	     59.70410962	    -14.24327534	     -2.14309169	     55.13738806	      0.96232896	      7.73415329	    -10.45094255	     -7.49999985	    -35.21513242	     -0.22162855	      0.91089427	      6.77187473	    -24.47368383	      4.91292175	    100.94096569	     83.69691838	      6.10548387	    -23.99283389	     -0.25477629	    109.29613453	     85.98655738
      2.60000000	    -14.14845174	      0.97453564	      1.54976177	      0.54231150	      0.82667446	      0.21711025	     65.74029182	    -13.13733287	      0.17509546	     66.80704628	      1.16600292	     14.00061906	     -9.89464246	     -7.49999986	     64.92752375	    -14.89948349	     -1.39214103	     62.34484523	      1.08812282	     11.68504372	    -11.04150838	     -7.49999986	    -37.16544306	     -0.41254262	      2.44252756	     13.88141253	    -25.44347924	      4.21951487	    104.47246707	     92.17337848	     17.64203568	    -23.29328458	      6.14142641	    108.37864025	     88.20828984
      2.61666670	    -15.48197512	      1.12569250	      1.43793502	      0.54379429	      0.80319007	      0.21082944	     70.54801848	    -13.73931333	      1.01838062	     72.88942650	      1.27216048	     16.83776447	    -10.51872754	     -7.49999985	     69.47277211	    -15.34722829	     -1.17017744	     68.24428933	      1.19108754	     15.14153946	    -10.84941929	     -7.49999985	    -39.03223381	     -0.45981348	      2.11593552	     23.78941783	    -26.32169301	      6.94778430	    107.50416214	     95.03839645	     27.80964790	    -22.65755605	      9.20039838	    109.28241886	     90.13338796
      2.63333330	    -17.34782001	      1.14203451	      1.29963379	      0.55842959	      0.76551090	      0.20857937	     75.60802589	    -14.20767118	      1.90236486	     78.59257837	      1.37169926	     19.51182426	    -11.10298957	     -7.49999985	     74.23970658	    -15.74072351	     -0.44821000	     73.82744027	      1.28853191	     18.77701863	    -10.48756817	     -7.49999985	    -39.47631142	     -0.53983739	      2.36696215	     31.68800657	    -27.69947751	     10.28789454	    111.02196247	     98.20720786	     36.53418321	    -21.79073168	     12.39083423	    110.47186099	     92.20928213
      2.65000000	    -19.26196435	      1.13616686	      1.22315506	      0.56112111	      0.73685866	      0.20401440	     80.51700621	    -14.63484285	      2.80347296	     83.74457239	      1.46161852	     21.67394348	    -11.86555063	     -7.49999985	     78.97244038	    -16.08807141	      0.20755514	     79.00416038	      1.37888272	     22.02930416	    -10.07228847	     -7.49999985	    -39.55079832	     -0.77575409	      3.17536140	     39.67075063	    -28.89738980	     12.08784493	    113.76881186	    101.32595966	     46.23933849	    -20.74715572	     16.82914925	    110.97559245	     93.62646293
      2.66666670	    -21.65294323	      1.12361882	      1.09612299	      0.55862727	      0.72098131	      0.19883599	     85.35735085	    -15.12746732	      3.32246410	     87.60236164	      1.52894964	     23.17855822	    -12.45229818	     -7.49999985	     83.70276657	    -16.37099654	      0.58464999	     83.07212953	      1.44988218	     24.61879082	     -9.58277386	     -7.49999985	    -39.44249137	     -0.63555573	      3.27480516	     47.94070775	    -29.31130768	     14.42930202	    114.23840672	    101.72301028	     55.44185015	    -19.40936438	     20.67930647	    110.30637133	     93.88854604
      2.68333330	    -23.77627437	      1.05670415	      0.88593718	      0.56258510	      0.69648355	      0.20008629	     89.65858361	    -15.38319095	      3.64216590	     90.88803167	      1.58629540	     24.36077742	    -12.90780834	     -7.49999985	     87.99820330	    -16.69574901	      1.10371724	     86.65695577	      1.51244920	     26.37479862	     -9.51127924	     -7.49999985	    -39.65944839	     -0.58235010	      3.77123466	     56.94735936	    -29.74233860	     16.72435344	    115.38397812	    103.81125112	     64.82909501	    -18.40320373	     24.63136256	    108.75992789	     95.97701861
      2.70000000	    -26.43087588	      1.05438559	      0.91573322	      0.54387015	      0.67987946	      0.19254065	     94.52076576	    -15.82710925	      3.83033854	     93.42102249	      1.63050443	     24.86648714	    -13.30935367	     -7.49999985	     92.90436536	    -16.72316304	      1.31568901	     89.55025477	      1.56294679	     26.84222433	     -9.98697859	     -7.49999985	    -39.44869030	     -0.36966027	      4.19318214	     68.52219235	    -30.15697700	     19.62432643	    115.89812599	    103.30564307	     75.98569354	    -17.55626566	     28.39230790	    106.17118168	     96.26234008
      2.71666670	    -28.60391610	      0.83478064	      1.02051059	      0.54583748	      0.67484832	      0.20263673	     98.14675132	    -16.12290924	      3.58838008	     95.03229155	      1.65862638	     25.10505188	    -13.44191381	     -7.49999985	     96.84419270	    -16.69657646	      1.70879849	     91.55215134	      1.59788648	     26.71206030	    -10.63989614	     -7.49999985	    -40.07814661	     -0.35104638	      4.82704725	     78.52680316	    -30.57799921	     23.24840136	    116.70180876	    101.24865870	     84.09494194	    -17.52068218	     31.16654399	    105.54354053	     95.95075098
      2.73333330	    -30.66127372	      0.63469374	      1.23035601	      0.53111418	      0.65390279	      0.19027471	    101.76411805	    -16.70241277	      3.33736730	     96.45021782	      1.68337387	     25.23617333	    -13.28652704	     -7.49999985	    100.64404353	    -16.40806279	      2.01891841	     93.28792127	      1.62818138	     25.87889698	    -11.55650773	     -7.49999985	    -39.99028415	      0.21185755	      5.30118680	     88.32545854	    -30.41809004	     26.23990594	    116.83050683	     99.88120455	     92.27065152	    -16.54743369	     33.48293736	    104.83990024	     96.51834807
      2.75000000	    -32.49354464	      0.61378280	      1.36529576	      0.53486665	      0.64287035	      0.19108663	    105.01839857	    -17.15416028	      3.31767640	     97.75564978	      1.70615795	     25.32996557	    -13.14684516	     -7.49999985	    103.85527753	    -16.14358412	      2.20423533	     94.79482010	      1.65448172	     25.70123841	    -11.72065078	     -7.49999985	    -39.00077944	      0.21532595	      5.57582600	     93.20132689	    -28.56663554	     25.39324732	    117.43243360	     99.45085052	     96.39724951	    -15.09303447	     32.42841896	    104.91399386	     96.44707204
      2.76666670	    -33.41840064	      0.23761952	      1.54162213	      0.54025308	      0.63548494	      0.19420263	    106.87179433	    -17.73405483	      2.94648322	     98.86750817	      1.72556354	     25.45397172	    -12.71106974	     -7.49999986	    106.03145734	    -15.74815869	      2.78484053	     96.09511054	      1.67717607	     24.94075170	    -12.51704537	     -7.49999986	    -39.32000310	      1.07113619	      5.99816021	     98.92150439	    -27.77161111	     29.45314606	    119.61964124	     82.59238679	    100.05972101	    -15.96297533	     32.10521650	    106.90291296	     95.05428486
      2.78333330	    -34.58345569	      0.11039523	      1.69077618	      0.53082918	      0.63318737	      0.18800375	    108.74813781	    -18.23674212	      2.79106182	     99.55419855	      1.73754855	     25.38890522	    -12.57868350	     -7.49999986	    107.99267939	    -15.43586927	      2.91828860	     96.93910422	      1.69190654	     24.67974882	    -12.67773887	     -7.49999986	    -39.00685122	      1.53402657	      6.27228871	    101.25063579	    -26.35058279	     28.88289391	    119.46972105	     82.58329868	    102.98475608	    -14.90351261	     31.92267596	    106.18615327	     95.09665917
